<svg width="125" height="38" viewBox="0 0 125 38" fill="none" xmlns="http://www.w3.org/2000/svg">
<path d="M23.5957 4.85461C22.0948 4.85461 19.9284 5.33185 16.0106 6.63499V31.3508C19.4552 32.4741 22.0948 33.1312 23.5957 33.1312C27.0556 33.1312 29.0062 30.8528 29.0062 27.1979V10.788C29.0062 7.13306 27.0556 4.85461 23.5957 4.85461ZM24.7232 26.5629C24.7232 27.9933 23.9249 28.4692 22.9704 28.4692C22.2275 28.4692 21.0807 28.1786 20.1455 27.9034V10.0728C21.0807 9.80729 22.2275 9.51665 22.9704 9.51665C23.9249 9.51665 24.7232 9.99256 24.7232 11.423V26.5629Z" fill="white"/>
<path d="M73.0626 0.405049C68.6813 0.176821 66.0723 2.25877 66.0723 7.02596V30.7098C66.0723 35.7426 68.4351 37.8135 73.0626 37.5964C77.5918 37.3846 79.9547 35.5309 79.9547 30.1799V7.57244C79.9547 2.47049 77.8173 0.654061 73.0626 0.405049ZM75.1792 30.2864C75.1792 31.7169 74.7365 32.4584 73.0626 32.511C71.3402 32.5651 70.8727 31.7694 70.8727 30.2864V7.71491C70.8727 6.2319 71.3402 5.4102 73.0626 5.46416C74.7365 5.51671 75.1792 6.28449 75.1792 7.71491V30.2864Z" fill="white"/>
<path d="M115.653 9.64868V28.3052C121.029 25.5563 124.115 22.3621 124.115 18.9396C124.115 15.5544 121.029 12.3768 115.653 9.64868Z" fill="white"/>
<path d="M0.114998 18.9399C0.114998 22.3569 3.19719 25.5567 8.57169 28.2999V9.65454C3.19719 12.377 0.114998 15.5547 0.114998 18.9399Z" fill="white"/>
<path d="M41.0661 29.4602C41.0661 30.8906 40.6082 31.7967 38.9495 31.5796C37.3199 31.3678 36.8813 30.625 36.8813 28.9304V2.03153C35.7995 2.15859 33.3869 2.51849 32.3535 2.67758V29.8835C32.3535 34.2274 34.3124 35.9179 38.9495 36.4892C43.1924 37.0135 45.7918 34.7046 45.7918 29.8835V1.14062C44.9064 1.19435 42.0013 1.45868 41.0661 1.56534V29.4602Z" fill="white"/>
<path d="M93.0729 20.5715L87.8299 2.16397C86.4023 1.96201 84.6799 1.75587 83.3504 1.62305V36.3671C84.2856 36.273 86.6692 35.9813 87.8991 35.811L87.5253 15.338L93.0728 35.0114C94.2542 34.8106 95.9765 34.4871 97.1095 34.2546V3.72582C95.9281 3.47681 93.7811 3.08531 92.7477 2.91653L93.0729 20.5715Z" fill="white"/>
<path d="M56.0604 0.606323C55.2386 0.606323 52.2408 0.7169 49.4837 0.892581V37.0989C50.4189 37.1514 52.8799 37.2899 54.2093 37.3271V25.0315L56.0604 25.0275C61.0129 25.0118 63.07 22.6232 63.07 18.0248V7.356C63.07 2.85442 60.757 0.606323 56.0604 0.606323ZM58.2945 17.643C58.2945 19.2006 57.7882 19.9906 55.868 19.9962L54.2093 20V5.71367C54.9481 5.6721 55.341 5.66113 55.7851 5.66113C57.8615 5.66113 58.2945 6.50917 58.2945 8.09731V17.643Z" fill="white"/>
<path d="M99.4476 9.06607C100.618 9.29155 101.77 9.54196 102.894 9.80756V32.9089C103.927 32.6489 105.847 32.1093 107.127 31.7012V10.8977C108.355 11.2408 109.513 11.5839 110.573 11.9103V7.45581C107.231 6.19965 103.642 5.17732 99.4476 4.23523V9.06607Z" fill="white"/>
</svg>
