
<svg width="125" height="36" viewBox="0 0 125 36" fill="none" xmlns="http://www.w3.org/2000/svg">
<path d="M34.8231 14.2585C34.8024 14.1965 34.7404 14.3618 34.6784 14.4445C32.9838 17.627 29.6772 22.5456 22.9401 27.0921C19.1168 29.6754 14.963 31.7213 10.6024 33.1886C10.6024 33.1886 11.1191 33.4366 11.1604 33.4573C19.6955 37.3838 29.8219 33.6433 33.7278 25.0875C34.7611 22.8556 35.2777 20.4376 35.2777 17.9784C35.3191 16.7384 35.1537 15.4778 34.8231 14.2585Z" fill="white"/>
<path d="M2.15004 24.6742C1.92272 25.0255 0.765413 26.6375 1.75739 28.2288C3.43134 30.812 9.48651 31.618 20.4189 25.4595C31.6819 19.1357 36.8278 9.79459 34.8438 7.27333C33.8725 6.05403 31.5786 6.77734 31.5786 6.77734L31.4132 6.61201C31.4132 6.61201 34.3272 5.62004 35.3605 7.39732C37.3651 10.8279 32.0332 20.479 21.1629 27.0095C9.65184 33.9533 3.16268 33.2713 1.30273 29.5927C0.51742 27.9188 0.806746 25.9348 2.02605 24.5502L2.04671 24.5295L2.15004 24.6742Z" fill="white"/>
<path d="M31.6203 7.60396C31.2484 7.00464 30.8144 6.44666 30.3184 5.93001C23.6432 -0.703813 12.8555 -0.662482 6.22171 6.03334C1.50984 10.7659 0.02188 17.8337 2.37782 24.0748C2.48115 24.4055 2.60514 24.7362 2.77047 25.0462C3.67978 27.1334 8.37099 27.1334 13.4962 25.0668C11.5536 25.3148 11.4502 25.1701 11.4502 25.1701L4.56842 15.9324C4.56842 15.9324 5.35374 15.5811 6.61437 15.0438L9.28029 13.9278L16.5754 23.8062C16.5754 23.8062 21.9486 21.2229 26.2472 17.4824C30.3597 13.8865 32.9636 9.8359 31.6203 7.60396ZM27.9211 8.82326C27.9211 8.82326 23.6432 10.8485 19.3034 12.8532L21.1426 12.5225L20.75 14.6924L23.5192 13.7418L22.7339 15.7671L20.2747 17.317L19.7787 19.9416L16.5548 21.6156L17.8567 13.4525C16.1621 14.2584 14.9221 14.9198 12.8969 15.9117C11.3262 13.7005 10.9336 13.1838 10.9336 13.1838C19.4687 9.7739 29.1611 7.41797 29.1611 7.41797L27.9211 8.82326Z" fill="white"/>
<path d="M49.8884 9.25726L46.5611 13.2871L45.2592 9.25726H39.7206L42.9859 17.0277L41.7046 22.0496H47.0571L48.3384 17.0277L55.4682 9.25726H49.8884ZM59.3948 11.9232C55.5922 11.9025 54.5589 11.9852 54.5589 11.9852L52.2856 14.4445C54.1663 14.4445 56.3569 14.4238 57.3075 14.4651C58.3821 14.5271 58.4441 14.8578 58.3821 15.2711L58.2168 16.1391C56.3569 16.2011 55.7575 16.1597 55.0756 16.2011C53.5876 16.3044 52.4716 16.5317 51.769 16.8211C50.7357 17.2137 49.9504 18.1024 49.6817 19.177C49.6404 19.4043 49.599 19.611 49.599 19.8383C49.599 21.3263 51.211 22.0909 54.4349 22.0909C55.2409 22.1116 56.0262 21.9462 56.7702 21.6569L56.6875 22.0082H61.1514C61.1514 22.0082 62.35 17.2757 62.598 16.3251C62.8047 15.4778 63.5693 11.9439 59.3948 11.9232ZM57.4315 19.053C57.2662 19.6936 56.7289 20.0036 55.7989 20.0036C54.9929 20.0036 54.6002 19.7763 54.6002 19.3423C54.6002 19.239 54.6002 19.1563 54.6209 19.0737C54.7242 18.7017 55.0136 18.3917 55.3649 18.2677C55.7575 18.123 56.1502 18.0403 56.5635 18.0197C56.9562 17.999 57.3488 17.9164 57.7208 17.7717L57.4315 19.053ZM72.1664 11.9025C71.1951 11.8612 70.2238 12.0058 69.3145 12.3158L69.3972 11.9852H64.9333L62.3914 21.9876H66.8552L68.4879 15.5191C68.7359 14.4858 69.2732 13.9898 70.0378 13.9898C70.6165 13.9898 70.9265 14.2585 70.9265 14.8578C70.9265 15.0851 70.8851 15.3124 70.8231 15.5191L69.1905 22.0082H73.6544L75.1837 15.9531C75.3077 15.4571 75.3903 14.9611 75.411 14.4651C75.411 12.7498 74.3157 11.9025 72.1664 11.9025ZM86.798 12.0265L83.6361 12.0058C83.9668 11.2619 84.7108 10.8072 85.5167 10.8485H86.5087L87.6453 8.49261H85.6407C81.4455 8.51328 80.2675 9.69124 79.1516 12.0058H76.8163L76.1137 14.7544H78.3043L76.4443 22.0496H80.9082L82.7681 14.7544H84.5248C84.5248 14.7544 85.2687 13.5971 85.8887 12.7912C86.1781 12.5018 86.488 12.2538 86.798 12.0265ZM92.1506 18.991C91.9646 19.611 91.3859 20.0243 90.7453 19.983C90.1666 19.983 89.8566 19.7143 89.8566 19.115C89.8566 18.8877 89.898 18.6603 89.96 18.4537L90.1459 17.6684H97.8337L98.1024 16.5937C98.2264 16.1391 98.2884 15.6637 98.2884 15.1884C98.2677 12.9978 96.4284 11.8818 92.7705 11.8818C88.41 11.8818 85.8681 13.4318 85.0621 16.5731L84.8761 17.3997C84.7521 17.8337 84.6901 18.309 84.6901 18.7637C84.7108 20.9749 86.55 22.0909 90.2079 22.0909C93.7212 22.0909 96.0978 21.0576 97.2757 18.991C97.3171 18.9497 97.3377 18.9083 97.3584 18.8463H92.1919C92.1919 18.8877 92.1919 18.9703 92.1506 18.991ZM90.7039 15.5604C90.9519 14.5271 91.4892 14.0311 92.2539 14.0311C92.6879 13.9691 93.0805 14.2791 93.1425 14.7131C93.1425 14.7751 93.1425 14.8578 93.1425 14.9198C93.1425 15.1471 93.1012 15.3744 93.0599 15.5811L92.9772 15.9324H90.6213L90.7039 15.5604ZM110.812 14.4651C110.791 12.7498 109.696 11.9232 107.547 11.9232C106.575 11.8819 105.604 12.0265 104.695 12.3365L104.778 12.0058H100.314L97.7511 22.0496H102.215L103.848 15.5604C104.096 14.5271 104.633 14.0311 105.398 14.0311C105.976 14.0311 106.286 14.2998 106.286 14.8991C106.286 15.1264 106.245 15.3538 106.183 15.5604L104.55 22.0496H109.014L110.543 15.9737C110.729 15.4984 110.812 14.9818 110.812 14.4651ZM120.38 11.9852L120.298 12.3365C119.678 12.0265 118.975 11.8612 118.273 11.9025C114.553 11.9025 112.3 13.4731 111.535 16.6144L111.308 17.441C111.163 17.937 111.101 18.4743 111.122 18.991C111.143 21.0783 112.672 22.1322 115.689 22.1322C116.454 22.1322 117.219 21.9876 117.942 21.7189L117.797 22.2769C117.549 23.2689 117.053 23.7649 116.268 23.7649C115.772 23.7649 115.462 23.6202 115.359 23.3309C115.359 23.3102 115.338 23.2689 115.338 23.2482L110.13 23.2275V23.3102C110.275 25.0668 112.135 25.9141 115.71 25.9141C119.492 25.9141 121.765 24.3642 122.53 21.2229L124.865 12.0058H120.401L120.38 11.9852ZM119.471 15.5604L118.748 18.4743C118.5 19.5076 117.963 20.0036 117.198 20.0036C116.619 20.0036 116.309 19.735 116.309 19.1357C116.309 18.9083 116.351 18.681 116.392 18.4743L117.115 15.5604C117.363 14.5271 117.901 14.0311 118.665 14.0311C119.244 14.0311 119.554 14.2998 119.554 14.8991C119.574 15.1058 119.533 15.3331 119.471 15.5604Z" fill="white"/>
<path d="M43.4622 23.4135C43.9375 23.3929 44.4128 23.5582 44.7848 23.8475L44.3715 24.3642C44.1028 24.1575 43.7928 24.0542 43.4622 24.0542C42.8422 24.0542 42.3462 24.5502 42.3462 25.1702C42.3462 25.1908 42.3462 25.2322 42.3462 25.2528C42.3462 25.9968 42.7595 26.4721 43.4622 26.4721C43.6895 26.4721 43.9168 26.4308 44.1028 26.3068V25.5835H43.2762V25.0668H44.8055V26.7408C44.4128 27.0301 43.9168 27.1748 43.4208 27.1541C42.4289 27.2161 41.5816 26.4515 41.5402 25.4595C41.5402 25.3975 41.5402 25.3355 41.5402 25.2735C41.5402 24.2402 42.3669 23.4135 43.4002 23.4135C43.4002 23.3929 43.4208 23.3929 43.4622 23.4135Z" fill="white"/>
<path d="M46.1672 23.1862H45.4233V27.0921H46.1672V23.1862Z" fill="white"/>
<path d="M47.8848 24.2402C48.6288 24.1988 49.2488 24.7775 49.2694 25.5215C49.2694 25.5628 49.2694 25.6248 49.2694 25.6661C49.2694 26.5754 48.7114 27.1334 47.8848 27.1334C47.0582 27.1334 46.4795 26.5754 46.4795 25.6661C46.4588 24.9015 47.0375 24.2815 47.8021 24.2608C47.8228 24.2402 47.8641 24.2402 47.8848 24.2402ZM47.8848 26.5754C48.2775 26.5754 48.5048 26.2241 48.5048 25.6661C48.5048 25.1701 48.2568 24.7982 47.8848 24.7982C47.5335 24.7982 47.2441 25.1288 47.2441 25.6661C47.2441 26.2241 47.4715 26.5754 47.8848 26.5754Z" fill="white"/>
<path d="M50.3226 23.1862V24.6328C50.5293 24.4055 50.8186 24.2815 51.1286 24.2815C51.7692 24.2815 52.2032 24.7568 52.2032 25.6868C52.2032 26.6168 51.7692 27.1748 51.1492 27.1748C50.8186 27.1748 50.5086 27.0301 50.2813 26.7821L50.2193 27.1128H49.558V23.1862H50.3226ZM50.9219 26.5754C51.2732 26.5754 51.4799 26.2241 51.4799 25.6868C51.4799 25.1702 51.3146 24.8602 50.9219 24.8602C50.6946 24.8808 50.4879 24.9635 50.3433 25.1288V26.3275C50.4879 26.4721 50.6946 26.5548 50.9219 26.5754Z" fill="white"/>
<path d="M54.124 25.4388V25.1908C54.124 25.0048 54.0207 24.8601 53.7313 24.8601C53.4214 24.8808 53.1114 24.9841 52.8427 25.1288L52.574 24.5708C52.946 24.3848 53.3594 24.2815 53.7727 24.2608C54.5787 24.2608 54.8887 24.6535 54.8887 25.2321V26.3894C54.8887 26.4928 54.9713 26.5961 55.0746 26.6168C55.0953 26.6168 55.0953 26.6168 55.116 26.6168V27.1334C54.5993 27.1334 54.372 27.0507 54.2273 26.8028C54.0207 27.0507 53.69 27.1954 53.3594 27.1954C52.946 27.2367 52.5741 26.9474 52.5327 26.5341C52.5327 26.5134 52.5327 26.4721 52.5327 26.4514C52.5121 25.8108 53.07 25.4801 54.124 25.4388ZM53.6074 26.5961C53.814 26.5961 54 26.5134 54.124 26.3688V25.8521C53.7107 25.8728 53.256 25.9968 53.256 26.3481C53.2767 26.4928 53.4007 26.5961 53.6074 26.5961Z" fill="white"/>
<path d="M56.2543 23.1862H55.5103V27.0921H56.2543V23.1862Z" fill="white"/>
<path d="M59.1274 23.4548H60.016L61.318 27.0921H60.4913L60.264 26.4308H58.8794L58.6521 27.0921H57.8254L59.1274 23.4548ZM59.1067 25.7901H60.078L59.582 24.3228L59.1067 25.7901Z" fill="white"/>
<path d="M62.3292 24.2815V26.1415C62.3292 26.3895 62.4119 26.5548 62.6805 26.5548C62.9285 26.5548 63.1559 26.4308 63.3005 26.2448V24.2815H64.0445V27.0508H63.3625L63.3005 26.7201C63.0732 26.9474 62.7632 27.0921 62.4325 27.1128C61.7919 27.1128 61.5439 26.7201 61.5439 26.1208V24.2815H62.3292Z" fill="white"/>
<path d="M64.8101 24.8395H64.3761V24.3228H64.8101V23.6202H65.5541V24.3228H66.2981V24.8395H65.5541V26.2241C65.5541 26.4101 65.6367 26.5341 65.8021 26.5341C65.9467 26.5341 66.0707 26.4928 66.1947 26.4308L66.4634 26.8647C66.2361 27.0507 65.9467 27.1334 65.6574 27.1334C65.0788 27.1334 64.7894 26.8647 64.7894 26.2241V24.8395H64.8101Z" fill="white"/>
<path d="M67.9511 24.2402C68.6951 24.1988 69.3151 24.7775 69.3358 25.5215C69.3358 25.5628 69.3358 25.6248 69.3358 25.6661C69.3358 26.5754 68.7778 27.1334 67.9511 27.1334C67.1245 27.1334 66.5458 26.5754 66.5458 25.6661C66.5252 24.9015 67.1038 24.2815 67.8685 24.2608C67.8891 24.2402 67.9098 24.2402 67.9511 24.2402ZM67.9511 26.5754C68.3438 26.5754 68.5711 26.2241 68.5711 25.6661C68.5711 25.1701 68.3231 24.7982 67.9511 24.7982C67.5998 24.7982 67.3105 25.1288 67.3105 25.6661C67.3105 26.2241 67.5172 26.5754 67.9511 26.5754Z" fill="white"/>
<path d="M69.6253 24.2815H70.3486L70.3693 24.5915C70.5966 24.3848 70.8859 24.2608 71.1959 24.2402C71.5059 24.2195 71.7952 24.3848 71.9399 24.6535C72.1879 24.4055 72.5185 24.2608 72.8492 24.2402C73.4278 24.2402 73.7172 24.6328 73.7172 25.2321V27.0921H72.9732V25.2115C72.9732 24.9635 72.8699 24.7981 72.6425 24.7981C72.4152 24.8188 72.2085 24.9221 72.0639 25.1081V27.1127H71.3199V25.2321C71.3199 24.9841 71.2166 24.8188 70.9893 24.8188C70.7619 24.8395 70.5553 24.9428 70.4106 25.1288V27.0921H69.6666V24.3228H69.6253V24.2815Z" fill="white"/>
<path d="M75.4106 24.2402C76.1546 24.1988 76.7746 24.7775 76.7952 25.5215C76.7952 25.5628 76.7952 25.6248 76.7952 25.6661C76.7952 26.5754 76.2373 27.1334 75.4106 27.1334C74.584 27.1334 74.0053 26.5754 74.0053 25.6661C73.9847 24.9015 74.6046 24.2608 75.3693 24.2608C75.3693 24.2402 75.39 24.2402 75.4106 24.2402ZM75.4106 26.5754C75.8033 26.5754 76.0306 26.2241 76.0306 25.6661C76.0306 25.1701 75.7826 24.7982 75.4106 24.7982C75.0593 24.7982 74.77 25.1288 74.77 25.6661C74.77 26.2241 75.018 26.5754 75.4106 26.5754Z" fill="white"/>
<path d="M77.3954 24.8395H76.9614V24.3228H77.3954V23.6202H78.1394V24.3228H78.8834V24.8395H78.1394V26.2241C78.1394 26.4101 78.222 26.5341 78.3874 26.5341C78.532 26.5341 78.656 26.4928 78.78 26.4308L79.0487 26.8648C78.8214 27.0508 78.532 27.1334 78.2427 27.1334C77.6641 27.1334 77.3747 26.8648 77.3747 26.2241V24.8395H77.3954Z" fill="white"/>
<path d="M79.3794 23.2069H80.1233V23.8682H79.3794V23.2069ZM79.3794 24.3435H80.1233V27.0921H79.3794V24.3435Z" fill="white"/>
<path d="M80.392 24.2815H81.1773L81.7559 26.2655L82.3552 24.2815H83.0579L82.1486 27.0921H81.3426L80.392 24.2815Z" fill="white"/>
<path d="M84.5254 24.2402C85.3314 24.2402 85.7654 24.7568 85.7654 25.5215C85.7654 25.6248 85.7654 25.7488 85.7447 25.8521H83.9054C83.8848 26.2034 84.1328 26.5134 84.4841 26.5548C84.5254 26.5548 84.5668 26.5548 84.5874 26.5548C84.8561 26.5548 85.1454 26.4721 85.3727 26.3068L85.6827 26.7821C85.3521 27.0301 84.9594 27.1541 84.5461 27.1334C83.7195 27.1334 83.1615 26.5754 83.1615 25.6661C83.0995 24.9428 83.6368 24.3022 84.3601 24.2608C84.4221 24.2402 84.4841 24.2402 84.5254 24.2402ZM83.9261 25.3975H85.0628C85.0628 25.0461 84.9181 24.7775 84.5668 24.7775C84.1948 24.7982 84.0088 25.0048 83.9261 25.3975Z" fill="white"/>
<path d="M88.2255 23.4548H87.4402V27.0921H88.2255V23.4548Z" fill="white"/>
<path d="M88.8651 24.2815H89.5884L89.6091 24.6121C89.8157 24.3641 90.1257 24.2195 90.4357 24.2195C91.0557 24.2195 91.3243 24.6121 91.3243 25.2115V27.0507H90.5804V25.1908C90.5804 24.9428 90.477 24.7775 90.229 24.7775C89.9811 24.7775 89.7537 24.9015 89.6091 25.1081V27.0507H88.8651V24.2815Z" fill="white"/>
<path d="M92.048 24.8395H91.614V24.3228H92.048V23.6202H92.792V24.3228H93.536V24.8395H92.792V26.2241C92.792 26.4101 92.8747 26.5341 93.04 26.5341C93.1847 26.5341 93.3087 26.4928 93.4327 26.4308L93.7013 26.8648C93.474 27.0508 93.1847 27.1334 92.8953 27.1334C92.3167 27.1334 92.0274 26.8648 92.0274 26.2241V24.8395H92.048Z" fill="white"/>
<path d="M95.1894 24.2402C95.9953 24.2402 96.4293 24.7568 96.4293 25.5215C96.4293 25.6248 96.4293 25.7488 96.4087 25.8521H94.5694C94.6314 26.3274 94.838 26.5548 95.272 26.5548C95.5407 26.5548 95.83 26.4721 96.0574 26.3068L96.3673 26.7821C96.0367 27.0301 95.644 27.1541 95.2307 27.1334C94.4041 27.1334 93.8461 26.5754 93.8461 25.6661C93.7841 24.9428 94.3007 24.3228 95.024 24.2608C95.0654 24.2402 95.1274 24.2402 95.1894 24.2402ZM94.5694 25.3975H95.706C95.706 25.0461 95.5614 24.7775 95.21 24.7775C94.8587 24.7982 94.59 25.0668 94.5694 25.3975Z" fill="white"/>
<path d="M96.8417 24.2815H97.5443L97.6063 24.7155C97.751 24.4055 98.061 24.2195 98.4123 24.2195C98.5156 24.2195 98.6396 24.2402 98.743 24.2815L98.6396 24.9842C98.5156 24.9428 98.3916 24.9222 98.2883 24.9222C98.0197 24.9222 97.813 25.0875 97.6477 25.4181V27.0921H96.9037V24.2815H96.8417Z" fill="white"/>
<path d="M99.0314 23.2069H99.7754V23.8682H99.0314V23.2069ZM99.0314 24.3435H99.7754V27.0921H99.0314V24.3435Z" fill="white"/>
<path d="M101.533 24.2402C102.277 24.1988 102.897 24.7775 102.918 25.5215C102.918 25.5628 102.918 25.6248 102.918 25.6661C102.918 26.5754 102.36 27.1334 101.533 27.1334C100.707 27.1334 100.128 26.5754 100.128 25.6661C100.107 24.9015 100.686 24.2815 101.45 24.2608C101.471 24.2402 101.492 24.2402 101.533 24.2402ZM101.533 26.5754C101.926 26.5754 102.153 26.2241 102.153 25.6661C102.153 25.1701 101.905 24.7982 101.533 24.7982C101.182 24.7982 100.893 25.1288 100.893 25.6661C100.893 26.2241 101.12 26.5754 101.533 26.5754Z" fill="white"/>
<path d="M103.228 24.2815H103.93L103.992 24.7155C104.137 24.4055 104.447 24.2195 104.798 24.2195C104.902 24.2195 105.026 24.2402 105.129 24.2815L105.026 24.9842C104.902 24.9428 104.778 24.9222 104.674 24.9222C104.406 24.9222 104.199 25.0875 104.034 25.4181V27.0921H103.249V24.2815H103.228Z" fill="white"/>
<path d="M105.523 26.3068C105.791 26.4514 106.081 26.5341 106.391 26.5547C106.638 26.5547 106.804 26.4721 106.804 26.2861C106.804 25.8108 105.316 26.1208 105.316 25.0875C105.316 24.5295 105.833 24.2195 106.432 24.2195C106.783 24.2195 107.134 24.3021 107.465 24.4675L107.196 24.9841C106.969 24.8601 106.7 24.7981 106.452 24.7981C106.225 24.7981 106.101 24.8808 106.101 25.0461C106.101 25.5214 107.589 25.1908 107.589 26.2448C107.589 26.8234 107.114 27.1334 106.452 27.1334C106.039 27.1334 105.647 27.0301 105.295 26.8234L105.523 26.3068Z" fill="white"/>
</svg>