<svg width="125" height="60" viewBox="0 0 125 60" fill="none" xmlns="http://www.w3.org/2000/svg">
<g clip-path="url(#clip0_7621_950)">
<path d="M1.51709 1.1707H43.0095V13.6396H13.8424V29.1454H43.0095V41.6157H1.51709" fill="#667085"/>
<path d="M15.9022 15.7005H57.396V41.616H45.0707V27.0851H15.9022" fill="white"/>
<mask id="mask0_7621_950" style="mask-type:luminance" maskUnits="userSpaceOnUse" x="-621" y="-1046" width="815" height="1152">
<path d="M-620.881 105.822H193.074V-1045.34H-620.881V105.822Z" fill="white"/>
</mask>
<g mask="url(#mask0_7621_950)">
<path d="M8.12269 50.5057V53.7067H12.2931C11.8528 54.9496 10.6974 55.703 9.11676 55.703C7.30638 55.703 5.35653 54.4109 5.35653 51.5763C5.35653 48.9565 7.23938 47.5864 9.09761 47.5864C10.856 47.5864 11.738 48.6967 12.1072 49.3585L12.1482 49.4337H16.5114L16.4581 49.2464C15.6158 46.3093 12.4928 44.0955 9.19333 44.0955C4.83693 44.0955 1.42401 47.3827 1.42401 51.5763C1.42401 55.848 4.81232 59.1925 9.1359 59.1925C12.8934 59.1925 16.8861 56.4619 16.8861 51.404L16.8628 50.5016" fill="white"/>
<path d="M22.8057 51.526H21.664V47.8561H22.844C24.2428 47.8561 25.0455 48.5028 25.0455 49.6323C25.0455 50.4964 24.6558 51.526 22.8057 51.526ZM25.3887 53.9873C28.0783 53.4062 28.8235 50.8738 28.8235 49.4203C28.8235 47.8055 28.148 46.3082 27.0158 45.4167C26.1106 44.7193 25.1699 44.3652 22.5364 44.3652H18.0323H17.8846V58.9043H21.664V54.5616C22.0592 55.1154 24.7706 58.9043 24.7706 58.9043H29.3089C29.3089 58.9043 25.6457 54.31 25.3887 53.9873Z" fill="white"/>
</g>
<path d="M38.1648 44.3655H30.1069V58.9032H38.3124V55.4137H33.8849V53.2642H38.1771V49.7747H33.8849V47.855H38.3124V44.3655" fill="white"/>
<mask id="mask1_7621_950" style="mask-type:luminance" maskUnits="userSpaceOnUse" x="-621" y="-1046" width="815" height="1152">
<path d="M-620.881 105.822H193.074V-1045.34H-620.881V105.822Z" fill="white"/>
</mask>
<g mask="url(#mask1_7621_950)">
<path d="M51.5192 44.3655H47.8848C47.8848 44.3655 48.0215 52.2073 48.0352 52.9935C47.5921 52.2756 42.7285 44.3655 42.7285 44.3655H39.3607V58.9032H43.1414C43.1414 58.9032 43.0566 51.3486 43.0484 50.5541C43.4846 51.2501 48.2813 58.9032 48.2813 58.9032H51.6669V44.3655" fill="white"/>
<path d="M61.9857 44.3655H52.849V47.855H57.6525C57.416 48.2734 52.849 56.3312 52.849 56.3312V58.9032H62.1333V55.4137H57.6949C57.9274 54.9994 62.1333 47.4967 62.1333 47.4967V44.3655" fill="white"/>
</g>
<path d="M71.4785 44.3655H63.4207V58.9032H71.6262V55.4137H67.1987V53.2642H71.4908V49.7747H67.1987V47.855H71.6262V44.3655" fill="white"/>
<mask id="mask2_7621_950" style="mask-type:luminance" maskUnits="userSpaceOnUse" x="-621" y="-1046" width="815" height="1152">
<path d="M-620.881 105.822H193.074V-1045.34H-620.881V105.822Z" fill="white"/>
</mask>
<g mask="url(#mask2_7621_950)">
<path d="M77.596 55.4141H76.5308V53.1101H77.596C78.4602 53.1101 79.2587 53.2413 79.2587 54.1944C79.2587 55.2869 78.3098 55.4141 77.596 55.4141ZM76.5308 47.8553H77.1735C77.8777 47.8553 78.5655 47.9278 78.5655 48.7865C78.5655 49.6985 77.8462 49.7737 77.1735 49.7737H76.5308V47.8553ZM80.8366 51.0768C81.7856 50.4369 82.3435 49.4305 82.3435 48.2464C82.3435 47.2428 82.0358 46.395 81.4547 45.7961C80.354 44.5723 79.1247 44.3658 76.7879 44.3658H72.8991H72.7528V58.9036H76.9219C79.2751 58.9036 80.2938 58.7942 81.6748 57.6374C82.5144 56.9469 83.0367 55.7163 83.0367 54.4255C83.0367 52.4428 81.8922 51.5157 80.8366 51.0768Z" fill="white"/>
<path d="M88.2276 53.6625C88.3233 53.3398 89.3379 49.9652 89.5211 49.3553C89.7044 49.9652 90.7176 53.3398 90.816 53.6625H88.2276ZM91.0539 44.3658H90.9555H87.9883L82.1552 58.9036H86.3844C86.3844 58.9036 87.0695 57.0207 87.1337 56.8443H91.8689C91.9318 57.0262 92.5621 58.9036 92.5621 58.9036H96.8324L91.0539 44.3658Z" fill="white"/>
<path d="M95.3415 51.6157C95.3415 55.3308 98.2034 59.1731 102.995 59.1731C106.546 59.1731 109.498 56.8773 110.337 53.4603L110.382 53.2771H106.289L106.25 53.3632C105.558 54.8591 104.389 55.6836 102.958 55.6836C100.651 55.6836 99.2726 53.6052 99.2726 51.5966C99.2726 49.6522 100.558 47.5861 102.937 47.5861C104.704 47.5861 105.804 48.8195 106.246 49.9749L106.282 50.0692H110.369L110.34 49.897C109.924 47.4877 107.359 44.0953 102.958 44.0953C98.1897 44.0953 95.3415 47.9198 95.3415 51.6157Z" fill="white"/>
</g>
<path d="M123.158 44.3655H119.373V49.7159H115.009V44.3655H111.078V58.9032H115.009V53.2068H119.373V58.9032H123.306V44.3655" fill="white"/>
</g>
<defs>
<clipPath id="clip0_7621_950">
<rect width="124" height="59.9414" fill="white" transform="translate(0.36499 0.0292969)"/>
</clipPath>
</defs>
</svg>