
<svg width="125" height="22" viewBox="0 0 125 22" fill="none" xmlns="http://www.w3.org/2000/svg">
<g clip-path="url(#clip0_7621_941)">
<path d="M82.2575 20.9963C82.1673 21.003 82.0767 20.9902 81.9919 20.9587C81.9071 20.9272 81.8301 20.8778 81.7661 20.8138C81.7021 20.7499 81.6527 20.6729 81.6212 20.5881C81.5897 20.5032 81.5769 20.4126 81.5836 20.3224V18.9746C81.5836 18.6751 81.6585 18.5253 82.1826 17.8514L93.1899 3.69923H82.7068C82.5281 3.69923 82.3566 3.62823 82.2303 3.50185C82.1039 3.37547 82.0329 3.20405 82.0329 3.02532V1.6775C82.0329 1.49876 82.1039 1.32735 82.2303 1.20097C82.3566 1.07458 82.5281 1.00358 82.7068 1.00358H96.7092C96.798 1.00258 96.8861 1.01933 96.9683 1.05284C97.0505 1.08635 97.1252 1.13595 97.188 1.19873C97.2507 1.26151 97.3003 1.3362 97.3339 1.41842C97.3674 1.50063 97.3841 1.58872 97.3831 1.6775V2.80068C97.3831 3.1002 97.3082 3.24996 96.7841 3.92387L85.5522 18.3756H96.7092C96.8879 18.3756 97.0593 18.4466 97.1857 18.5729C97.3121 18.6993 97.3831 18.8707 97.3831 19.0495V20.3224C97.3831 20.5012 97.3121 20.6726 97.1857 20.799C97.0593 20.9253 96.8879 20.9963 96.7092 20.9963H82.2575Z" fill="white"/>
<path d="M101.427 20.9963C101.336 21.003 101.246 20.9902 101.161 20.9587C101.076 20.9272 100.999 20.8778 100.935 20.8138C100.871 20.7499 100.822 20.6729 100.79 20.5881C100.759 20.5032 100.746 20.4126 100.753 20.3224V18.9746C100.753 18.6751 100.828 18.5253 101.352 17.8514L112.359 3.69923H101.876C101.697 3.69923 101.526 3.62823 101.399 3.50185C101.273 3.37547 101.202 3.20405 101.202 3.02532V1.6775C101.202 1.49876 101.273 1.32735 101.399 1.20097C101.526 1.07458 101.697 1.00358 101.876 1.00358H115.878C115.967 1.00258 116.055 1.01933 116.137 1.05284C116.22 1.08635 116.294 1.13595 116.357 1.19873C116.42 1.26151 116.469 1.3362 116.503 1.41842C116.536 1.50063 116.553 1.58872 116.552 1.6775V2.80068C116.552 3.1002 116.477 3.24996 115.953 3.92387L104.721 18.3756H115.878C115.967 18.3756 116.054 18.393 116.136 18.4269C116.218 18.4607 116.292 18.5104 116.355 18.5729C116.417 18.6355 116.467 18.7098 116.501 18.7916C116.535 18.8733 116.552 18.961 116.552 19.0495V20.3224C116.536 20.4955 116.459 20.6575 116.336 20.7804C116.213 20.9034 116.051 20.9797 115.878 20.9963H101.427Z" fill="white"/>
<path d="M120.82 1.67758C120.82 1.49884 120.891 1.32743 121.018 1.20105C121.144 1.07466 121.315 1.00366 121.494 1.00366H123.441C123.62 1.00366 123.791 1.07466 123.918 1.20105C124.044 1.32743 124.115 1.49884 124.115 1.67758V20.2476C124.115 20.4264 124.044 20.5978 123.918 20.7242C123.791 20.8505 123.62 20.9215 123.441 20.9215H121.494C121.321 20.9049 121.159 20.8286 121.036 20.7056C120.913 20.5827 120.837 20.4207 120.82 20.2476V1.67758Z" fill="white"/>
<path d="M61.6657 1.67758C61.6823 1.50446 61.7587 1.34253 61.8816 1.21956C62.0046 1.09659 62.1665 1.02026 62.3396 1.00366H64.3614C64.5401 1.00366 64.7115 1.07466 64.8379 1.20105C64.9643 1.32743 65.0353 1.49884 65.0353 1.67758V14.2573C65.1027 15.443 65.6211 16.5579 66.4844 17.3735C67.3476 18.1891 68.4902 18.6435 69.6778 18.6435C70.8654 18.6435 72.008 18.1891 72.8712 17.3735C73.7345 16.5579 74.2529 15.443 74.3203 14.2573V1.67758C74.3203 1.49884 74.3913 1.32743 74.5177 1.20105C74.6441 1.07466 74.8155 1.00366 74.9942 1.00366H77.016C77.1947 1.00366 77.3661 1.07466 77.4925 1.20105C77.6189 1.32743 77.6899 1.49884 77.6899 1.67758V14.2573C77.6899 18.3756 74.0208 21.6703 69.6778 21.6703C65.3348 21.6703 61.6657 18.4505 61.6657 14.2573V1.67758Z" fill="white"/>
<path d="M30.6657 0.329712C35.1585 0.329712 38.7527 3.6244 38.7527 7.74276V20.3973C38.7527 20.5761 38.6817 20.7475 38.5553 20.8739C38.4289 21.0003 38.2575 21.0713 38.0788 21.0713H36.057C35.8783 21.0713 35.7069 21.0003 35.5805 20.8739C35.4541 20.7475 35.3831 20.5761 35.3831 20.3973V13.808H26.0232V20.3973C26.0232 20.5761 25.9522 20.7475 25.8258 20.8739C25.6994 21.0003 25.528 21.0713 25.3493 21.0713H23.4024C23.2237 21.0713 23.0523 21.0003 22.9259 20.8739C22.7995 20.7475 22.7285 20.5761 22.7285 20.3973V7.66788C22.6536 3.54952 26.3227 0.329712 30.6657 0.329712ZM35.3831 7.66788C35.3382 6.45826 34.8173 5.31535 33.9338 4.48794C33.0503 3.66053 31.8757 3.2156 30.6657 3.25C30.0757 3.24009 29.4895 3.3465 28.9406 3.56317C28.3917 3.77984 27.8909 4.10251 27.4668 4.51277C27.0426 4.92302 26.7034 5.41281 26.4686 5.95417C26.2337 6.49553 26.1078 7.07785 26.0981 7.66788V11.1123H35.3831V7.66788Z" fill="white"/>
<path d="M57.0981 1.00366C57.4725 1.00366 57.772 1.2283 57.772 1.45294V2.95052C57.7787 3.04074 57.7659 3.13134 57.7344 3.21615C57.7029 3.30096 57.6535 3.37797 57.5895 3.44194C57.5255 3.50591 57.4485 3.55533 57.3637 3.58682C57.2789 3.61832 57.1883 3.63115 57.0981 3.62443H51.2575V20.3225C51.2575 20.5012 51.1865 20.6726 51.0601 20.799C50.9337 20.9254 50.7623 20.9964 50.5836 20.9964H48.5619C48.4734 20.9964 48.3857 20.979 48.304 20.9451C48.2222 20.9112 48.1479 20.8616 48.0853 20.799C48.0228 20.7365 47.9731 20.6622 47.9392 20.5804C47.9054 20.4986 47.8879 20.411 47.8879 20.3225V3.62443H42.1222C41.9435 3.62443 41.7721 3.55343 41.6457 3.42705C41.5193 3.30067 41.4483 3.12925 41.4483 2.95052V1.67758C41.4483 1.49884 41.5193 1.32743 41.6457 1.20105C41.7721 1.07466 41.9435 1.00366 42.1222 1.00366H57.0981Z" fill="white"/>
<path d="M0.788911 1.00363C0.610178 1.00363 0.438766 1.07464 0.312382 1.20102C0.185999 1.3274 0.114998 1.49881 0.114998 1.67755V20.3225C0.114998 20.5012 0.185999 20.6726 0.312382 20.799C0.438766 20.9254 0.610178 20.9964 0.788911 20.9964H2.73577C2.9145 20.9964 3.08592 20.9254 3.2123 20.799C3.33868 20.6726 3.40968 20.5012 3.40968 20.3225V6.1703L14.0425 20.2476C14.1978 20.5044 14.4179 20.7157 14.6808 20.8603C14.9437 21.0049 15.2401 21.0777 15.5401 21.0713H17.4121C17.5908 21.0713 17.7622 21.0003 17.8886 20.8739C18.015 20.7475 18.086 20.5761 18.086 20.3974V1.67755C18.086 1.49881 18.015 1.3274 17.8886 1.20102C17.7622 1.07464 17.5908 1.00363 17.4121 1.00363H15.3904C15.2116 1.00363 15.0402 1.07464 14.9138 1.20102C14.7874 1.3274 14.7164 1.49881 14.7164 1.67755V15.9795L3.85896 1.82731C3.71756 1.55833 3.50022 1.33685 3.23395 1.1904C2.96769 1.04396 2.66425 0.979009 2.36137 1.00363H0.788911Z" fill="white"/>
</g>
<defs>
<clipPath id="clip0_7621_941">
<rect width="124" height="21.3406" fill="white" transform="translate(0.114998 0.329712)"/>
</clipPath>
</defs>
</svg>