<svg width="95" height="72" viewBox="0 0 95 72" fill="none" xmlns="http://www.w3.org/2000/svg">
<path d="M64.8288 16.5368C64.6798 7.39294 57.2005 0 48.0225 0C38.8444 0 31.3651 7.39389 31.2161 16.5368C25.2799 19.1353 21.1213 25.062 21.1213 31.9453C21.1213 41.2163 28.6632 48.7583 37.9343 48.7583C41.7162 48.7583 45.2105 47.5018 48.0225 45.3864C50.8344 47.5018 54.3288 48.7583 58.1106 48.7583C67.3817 48.7583 74.9246 41.2154 74.9246 31.9453C74.9236 25.0629 70.764 19.1353 64.8288 16.5368ZM54.6732 30.4012C54.2841 26.1552 52.3121 22.362 49.3511 19.6174C51.1002 18.3713 53.1225 17.4878 55.311 17.0768C56.7962 19.8708 58.1647 23.2636 59.3766 26.7987C58.067 28.2877 56.4707 29.5186 54.6732 30.4012ZM48.0225 43.2121C45.1422 40.6308 43.2555 36.9647 43.0087 32.863C44.5927 33.3584 46.2772 33.6269 48.0225 33.6269C49.7677 33.6269 51.4522 33.3593 53.0362 32.863C52.7885 36.9656 50.9018 40.6308 48.0225 43.2121ZM36.6673 26.7996C37.8792 23.2645 39.2468 19.8717 40.733 17.0778C42.9214 17.4887 44.9448 18.3723 46.6929 19.6183C43.7319 22.3629 41.7589 26.1562 41.3707 30.4021C39.5732 29.5186 37.9779 28.2877 36.6673 26.7996ZM35.4383 25.2062C33.9797 23.0263 33.0724 20.4478 32.9158 17.6728C34.4874 17.1186 36.1757 16.8139 37.9343 16.8139C38.2807 16.8139 38.6223 16.8301 38.9621 16.8529C37.7644 19.1666 36.5895 21.9501 35.4383 25.2062ZM41.6013 15.5403C43.5838 12.2387 45.7514 10.0882 48.0225 10.0882C50.2935 10.0882 52.4611 12.2387 54.4436 15.5403C52.0786 16.069 49.8977 17.093 48.0225 18.5042C46.1462 17.093 43.9673 16.068 41.6013 15.5403ZM48.0225 31.9453C46.2639 31.9453 44.5756 31.6406 43.004 31.0864C43.2365 26.961 45.1279 23.2721 48.0225 20.6784C50.916 23.2721 52.8084 26.961 53.0409 31.0864C51.4684 31.6406 49.781 31.9453 48.0225 31.9453ZM57.0819 16.8519C57.4216 16.8291 57.7642 16.813 58.1097 16.813C59.8692 16.813 61.5566 17.1176 63.1282 17.6719C62.9716 20.4478 62.0643 23.0263 60.6056 25.2053C59.4554 21.9501 58.2796 19.1666 57.0819 16.8519ZM48.0225 1.68168C56.0579 1.68168 62.6479 7.97849 63.1244 15.8962C61.5404 15.4008 59.8559 15.1323 58.1106 15.1323C57.4653 15.1323 56.8294 15.1721 56.2031 15.2433C53.5686 10.6994 50.8335 8.4065 48.0225 8.4065C45.2124 8.4065 42.4763 10.6994 39.8418 15.2433C39.2155 15.1721 38.5796 15.1323 37.9343 15.1323C36.189 15.1323 34.5054 15.3999 32.9206 15.8962C33.397 7.97754 39.987 1.68168 48.0225 1.68168ZM22.802 31.9462C22.802 25.9873 26.265 20.8245 31.2825 18.358C31.5843 21.654 32.8418 24.6757 34.774 27.1479C34.7436 27.24 34.7133 27.3282 34.6829 27.4203C32.2657 34.761 30.6505 42.1748 30.0943 44.8843C25.725 42.227 22.802 37.4212 22.802 31.9462ZM37.9343 47.0785C35.6889 47.0785 33.5593 46.5831 31.6413 45.7024C32.4584 41.5153 34.0034 34.9651 36.0628 28.617C37.5556 30.1298 39.3312 31.3597 41.3043 32.2233C41.3821 36.9789 43.4405 41.26 46.6938 44.2751C44.2187 46.0364 41.197 47.0785 37.9343 47.0785ZM49.3511 44.2732C52.6034 41.2581 54.6628 36.977 54.7406 32.2214C56.7137 31.3578 58.4902 30.1279 59.9831 28.6151C62.0415 34.9632 63.5865 41.5134 64.4046 45.7005C62.4866 46.5812 60.356 47.0766 58.1106 47.0766C54.8469 47.0785 51.8252 46.0364 49.3511 44.2732ZM65.9506 44.8843C65.3944 42.1748 63.7782 34.761 61.362 27.4203C61.3316 27.3282 61.3013 27.24 61.27 27.1479C63.2031 24.6767 64.4596 21.654 64.7614 18.358C69.7799 20.8245 73.2429 25.9873 73.2429 31.9462C73.2429 37.4212 70.3189 42.227 65.9506 44.8843Z" fill="white"/>
<path d="M90.0167 67.5405C89.7776 67.4361 89.5726 67.2881 89.4037 67.0964C89.2347 66.9047 89.1038 66.675 89.0098 66.4074C88.9168 66.1397 88.8703 65.8427 88.8703 65.5153V63.3676C88.8703 63.007 88.9253 62.69 89.0354 62.4167C89.1455 62.1434 89.2907 61.9147 89.4701 61.7315C89.6504 61.5483 89.8611 61.4117 90.1002 61.3215C90.3394 61.2314 90.5862 61.1868 90.8395 61.1868C91.11 61.1868 91.3625 61.2361 91.5959 61.3348C91.8294 61.4335 92.022 61.5854 92.171 61.7913C92.32 61.9972 92.4368 62.2639 92.5222 62.5904C92.5839 62.8324 92.6275 63.1095 92.6531 63.4189C92.6778 63.7292 92.6911 64.0585 92.6911 64.4078C92.6911 64.6782 92.6778 64.98 92.6531 65.3122C92.6275 65.6453 92.5952 65.9186 92.5554 66.1322C92.4595 66.6228 92.2707 67.0053 91.9888 67.2824C91.707 67.5585 91.3131 67.6962 90.8054 67.6962C90.5197 67.6971 90.2568 67.6449 90.0167 67.5405ZM88.8713 71.7903V68.0606C89.0013 68.2295 89.174 68.4041 89.3913 68.5844C89.6087 68.7648 89.8753 68.9071 90.1942 69.0115C90.5131 69.1159 90.8889 69.1681 91.3226 69.1681C91.6775 69.1681 92.0382 69.1093 92.4054 68.9906C92.7718 68.872 93.0982 68.6651 93.3858 68.369C93.6733 68.0729 93.8992 67.7019 94.0624 67.2577C94.1915 66.9142 94.2874 66.5089 94.35 66.0439C94.4117 65.5789 94.443 65.0341 94.443 64.4078C94.443 63.7036 94.4031 63.0839 94.3244 62.5515C94.2456 62.0191 94.107 61.5521 93.9097 61.1517C93.4247 60.1941 92.5715 59.7148 91.3482 59.7148C90.7446 59.7148 90.2369 59.8372 89.8222 60.083C89.4074 60.3279 89.0734 60.6544 88.82 61.0596L88.7783 59.9862H87.1715V71.7903H88.8713ZM81.3265 67.5405C81.0873 67.4361 80.8823 67.2881 80.7134 67.0964C80.5435 66.9047 80.4135 66.675 80.3196 66.4074C80.2256 66.1397 80.18 65.8427 80.18 65.5153V63.3676C80.18 63.007 80.2351 62.69 80.3442 62.4167C80.4543 62.1434 80.5995 61.9147 80.7798 61.7315C80.9602 61.5483 81.1699 61.4117 81.409 61.3215C81.6482 61.2314 81.8959 61.1868 82.1493 61.1868C82.4198 61.1868 82.6722 61.2361 82.9057 61.3348C83.1391 61.4335 83.3308 61.5854 83.4808 61.7913C83.6298 61.9972 83.7465 62.2639 83.8319 62.5904C83.8936 62.8324 83.9372 63.1095 83.9629 63.4189C83.9885 63.7292 84.0008 64.0585 84.0008 64.4078C84.0008 64.6782 83.9885 64.98 83.9629 65.3122C83.9372 65.6453 83.905 65.9186 83.8651 66.1322C83.7693 66.6228 83.5804 67.0053 83.2986 67.2824C83.0167 67.5585 82.6228 67.6962 82.1151 67.6962C81.8304 67.6971 81.5666 67.6449 81.3265 67.5405ZM80.181 71.7903V68.0606C80.3101 68.2295 80.4837 68.4041 80.7011 68.5844C80.9184 68.7648 81.186 68.9071 81.5039 69.0115C81.8228 69.1159 82.1986 69.1681 82.6323 69.1681C82.9882 69.1681 83.3479 69.1093 83.7142 68.9906C84.0806 68.872 84.408 68.6651 84.6955 68.369C84.9831 68.0729 85.209 67.7019 85.3712 67.2577C85.5013 66.9142 85.5971 66.5089 85.6588 66.0439C85.7214 65.5789 85.7527 65.0341 85.7527 64.4078C85.7527 63.7036 85.7129 63.0839 85.6341 62.5515C85.5553 62.0191 85.4168 61.5521 85.2194 61.1517C84.7344 60.1941 83.8803 59.7148 82.658 59.7148C82.0544 59.7148 81.5457 59.8372 81.1319 60.083C80.7172 60.3279 80.3831 60.6544 80.1297 61.0596L80.087 59.9862H78.4813V71.7903H80.181ZM74.0152 68.7837C74.4517 68.5275 74.8228 68.1877 75.1265 67.7654L75.1435 68.89H76.7493V59.9872H75.0496V65.2372C75.0496 65.5362 74.9851 65.8645 74.855 66.2223C74.725 66.5801 74.4954 66.8971 74.1661 67.1732C73.8367 67.4494 73.4628 67.587 73.0462 67.587C72.5385 67.587 72.1608 67.4589 71.9131 67.2027C71.6654 66.9464 71.541 66.545 71.541 65.9974V59.9862H69.8413V66.4624C69.8413 66.9806 69.9172 67.4133 70.0691 67.7607C70.2219 68.1071 70.4202 68.3851 70.6651 68.593C70.9099 68.8018 71.1861 68.9498 71.4936 69.0371C71.8011 69.1244 72.1086 69.1681 72.4189 69.1681C73.0471 69.1681 73.5777 69.04 74.0152 68.7837ZM65.9114 68.8891V64.7883C65.9114 64.4163 65.9588 63.9855 66.0547 63.4948C66.1506 63.0042 66.3831 62.5742 66.7522 62.2051C67.1214 61.8359 67.6187 61.6518 68.2441 61.6518C68.4529 61.6518 68.6076 61.6632 68.7091 61.686V59.9692H68.4899C67.9148 59.9692 67.3966 60.1362 66.9344 60.4684C66.4723 60.8005 66.105 61.2655 65.8355 61.8634L65.8184 59.9862H64.2126V68.8891H65.9114ZM57.7023 68.8891V65.3207L58.8772 64.1288L61.2099 68.8891H63.1374L60.1185 62.8609L62.9428 59.9862H60.9223L57.7013 63.2746V56.8402H56.0026V68.8891H57.7023ZM48.8194 68.8891V63.6381C48.8194 63.3344 48.8858 62.9994 49.0177 62.6321C49.1506 62.2658 49.3793 61.9479 49.7067 61.6774C50.0332 61.4069 50.4109 61.2712 50.8399 61.2712C51.3466 61.2712 51.7158 61.4012 51.9474 61.6603C52.178 61.9194 52.2938 62.319 52.2938 62.8609V68.8891H53.9935V62.4129C53.9935 61.889 53.8986 61.4155 53.7107 60.9922C53.5218 60.5699 53.2314 60.251 52.8395 60.0365C52.4475 59.823 51.9901 59.7158 51.4662 59.7158C50.8351 59.7158 50.2999 59.8429 49.8595 60.0963C49.4201 60.3507 49.0481 60.6885 48.7435 61.1108L48.7264 59.9862H47.1197V68.8891H48.8194ZM40.1832 62.4338C40.2819 62.0931 40.4129 61.8217 40.5761 61.6224C40.7394 61.4231 40.9339 61.2817 41.1598 61.2001C41.3847 61.1184 41.6333 61.0776 41.9038 61.0776C42.1914 61.0776 42.477 61.1336 42.7617 61.2466C43.0464 61.3595 43.2752 61.6186 43.4469 62.0238C43.6187 62.429 43.7051 62.9928 43.7051 63.715H40.019C40.0295 63.2016 40.0845 62.7754 40.1832 62.4338ZM43.3786 68.9735C43.8152 68.8445 44.1853 68.6452 44.4861 68.3776C44.787 68.1099 45.0451 67.773 45.2596 67.3678L43.9148 66.675C43.8417 66.7984 43.7345 66.9426 43.594 67.1059C43.4536 67.2691 43.2514 67.4114 42.9895 67.5329C42.7276 67.6544 42.4305 67.7151 42.0974 67.7151C41.7871 67.7151 41.5043 67.6753 41.248 67.5965C40.9908 67.5177 40.7707 67.382 40.5837 67.1903C40.3977 66.9986 40.2544 66.7424 40.1528 66.4207C40.0513 66.0989 40.0001 65.6994 40.0001 65.2201V64.9753H45.3687V64.0452C45.3687 63.6448 45.3488 63.2253 45.3099 62.7849C45.271 62.3446 45.1789 61.9346 45.0347 61.555C44.8914 61.1744 44.6788 60.8375 44.3969 60.5443C44.1426 60.2909 43.8246 60.0897 43.4412 59.9397C43.0578 59.7907 42.5843 59.7158 42.0205 59.7158C41.4122 59.7158 40.8959 59.7936 40.4736 59.9483C40.0513 60.1039 39.6954 60.3307 39.4079 60.6297C39.1934 60.8442 39.0007 61.1213 38.829 61.462C38.6572 61.8036 38.5262 62.2459 38.4361 62.7897C38.3459 63.3335 38.3003 63.9465 38.3003 64.6289C38.3003 65.1528 38.3288 65.6254 38.3848 66.0448C38.4417 66.4653 38.5405 66.8525 38.6809 67.2074C38.9182 67.8214 39.3054 68.3026 39.8435 68.649C40.3816 68.9954 41.0905 69.1691 41.9702 69.1691C42.4723 69.1681 42.942 69.1036 43.3786 68.9735ZM34.6447 69.0798C34.9351 69.021 35.1913 68.9432 35.4143 68.8473C35.6374 68.7515 35.8291 68.6461 35.9895 68.5303C36.1498 68.4155 36.2751 68.2978 36.3653 68.1802C36.5399 67.96 36.6813 67.7227 36.7876 67.4655C36.8948 67.2093 36.948 66.8866 36.948 66.4966C36.948 66.1701 36.911 65.8911 36.8379 65.6605C36.7639 65.4289 36.6794 65.2344 36.5836 65.0768C36.4478 64.8737 36.2533 64.6697 35.9999 64.4638C35.7465 64.2578 35.2502 64.0424 34.5118 63.8165C34.1398 63.7093 33.8105 63.602 33.5229 63.4958C33.2354 63.3885 32.9915 63.2746 32.7912 63.1532C32.591 63.0317 32.4401 62.8988 32.3385 62.7555C32.2379 62.6122 32.1867 62.4471 32.1867 62.2611C32.1867 61.8777 32.3072 61.5882 32.5502 61.3908C32.6963 61.2608 32.8738 61.1706 33.0826 61.1203C33.2914 61.0691 33.5362 61.0435 33.8181 61.0435C34.2347 61.0435 34.5877 61.1327 34.8753 61.3101C35.1629 61.4876 35.3887 61.7628 35.551 62.1348L36.9129 61.4753C36.6709 60.8831 36.2846 60.4427 35.7541 60.1523C35.2245 59.8619 34.5735 59.7167 33.801 59.7167C33.3663 59.7167 32.9488 59.7708 32.5454 59.8771C32.1421 59.9843 31.8033 60.1419 31.53 60.3507C31.2566 60.5595 31.0498 60.8015 30.9093 61.0776C30.785 61.2969 30.6986 61.5256 30.6512 61.7619C30.6037 61.9991 30.579 62.2165 30.579 62.4129C30.579 62.6388 30.6132 62.877 30.6806 63.1275C30.7489 63.379 30.8638 63.6077 31.0279 63.8165C31.157 63.9798 31.343 64.1506 31.585 64.3281C31.827 64.5055 32.1317 64.665 32.498 64.8054L33.8001 65.2866C34.0307 65.3767 34.266 65.4726 34.5061 65.5741C34.7462 65.6757 34.936 65.8123 35.0774 65.9841C35.2179 66.1559 35.2891 66.3855 35.2891 66.6731C35.2891 66.8705 35.2445 67.0385 35.1534 67.1761C35.0632 67.3137 34.9417 67.4257 34.7899 67.5101C34.638 67.5946 34.4606 67.6553 34.2575 67.6914C34.0544 67.7284 33.838 67.7465 33.6064 67.7465C33.3531 67.7465 33.1272 67.7151 32.9307 67.6535C32.7333 67.5918 32.5559 67.5054 32.3974 67.3963C32.2389 67.2871 32.1013 67.1581 31.9827 67.0119C31.864 66.8648 31.7596 66.7044 31.6695 66.5298L30.2659 67.1552C30.3788 67.4542 30.5335 67.7246 30.7309 67.9666C30.9283 68.2086 31.1646 68.4184 31.4408 68.592C31.7283 68.7667 32.0481 68.9062 32.4002 69.0106C32.7533 69.115 33.1822 69.1672 33.69 69.1672C34.0373 69.1681 34.3552 69.1387 34.6447 69.0798ZM27.0344 69.0798C27.3248 69.021 27.5811 68.9432 27.8041 68.8473C28.0271 68.7515 28.2188 68.6461 28.3792 68.5303C28.5396 68.4155 28.6649 68.2978 28.755 68.1802C28.9306 67.96 29.071 67.7227 29.1783 67.4655C29.2855 67.2093 29.3387 66.8866 29.3387 66.4966C29.3387 66.1701 29.3017 65.8911 29.2286 65.6605C29.1555 65.4289 29.071 65.2344 28.9752 65.0768C28.8395 64.8737 28.6459 64.6697 28.3915 64.4638C28.1372 64.2578 27.6418 64.0424 26.9035 63.8165C26.5314 63.7093 26.2021 63.602 25.9146 63.4958C25.627 63.3885 25.3831 63.2746 25.1829 63.1532C24.9826 63.0317 24.8317 62.8988 24.7302 62.7555C24.6286 62.6122 24.5783 62.4471 24.5783 62.2611C24.5783 61.8777 24.6989 61.5882 24.9418 61.3908C25.0889 61.2608 25.2654 61.1706 25.4742 61.1203C25.683 61.0691 25.9288 61.0435 26.2097 61.0435C26.6263 61.0435 26.9794 61.1327 27.266 61.3101C27.5535 61.4876 27.7794 61.7628 27.9426 62.1348L29.3035 61.4753C29.0615 60.8831 28.6753 60.4427 28.1457 60.1523C27.6162 59.8619 26.9651 59.7167 26.1926 59.7167C25.758 59.7167 25.3404 59.7708 24.9371 59.8771C24.5337 59.9834 24.1959 60.1419 23.9226 60.3507C23.6483 60.5595 23.4423 60.8015 23.3009 61.0776C23.1776 61.2969 23.0912 61.5256 23.0438 61.7619C22.9963 61.9991 22.9716 62.2165 22.9716 62.4129C22.9716 62.6388 23.0058 62.877 23.0732 63.1275C23.1406 63.379 23.2563 63.6077 23.4196 63.8165C23.5496 63.9798 23.7356 64.1506 23.9776 64.3281C24.2196 64.5055 24.5242 64.665 24.8906 64.8054L26.1936 65.2866C26.4242 65.3767 26.6596 65.4726 26.8997 65.5741C27.1398 65.6757 27.3296 65.8123 27.471 65.9841C27.6114 66.1559 27.6826 66.3855 27.6826 66.6731C27.6826 66.8705 27.6371 67.0385 27.5469 67.1761C27.4567 67.3137 27.3353 67.4257 27.1834 67.5101C27.0316 67.5946 26.8532 67.6553 26.6501 67.6914C26.4479 67.7284 26.2306 67.7465 25.999 67.7465C25.7447 67.7465 25.5198 67.7151 25.3224 67.6535C25.125 67.5918 24.9475 67.5054 24.79 67.3963C24.6315 67.2862 24.4939 67.1581 24.3752 67.0119C24.2566 66.8648 24.1522 66.7044 24.0621 66.5298L22.6584 67.1552C22.7714 67.4542 22.9261 67.7246 23.1235 67.9666C23.3209 68.2086 23.5581 68.4184 23.8343 68.592C24.1219 68.7667 24.4417 68.9062 24.7938 69.0106C25.1459 69.115 25.5758 69.1672 26.0825 69.1672C26.427 69.1681 26.744 69.1387 27.0344 69.0798ZM16.6729 71.8652C16.9937 71.7751 17.3069 71.5578 17.6106 71.2142C17.9152 70.8707 18.1971 70.3601 18.4561 69.6834L22.2437 59.9862H20.5526L18.2274 66.1502L16.0124 59.9862H14.2795L17.3486 68.4744L16.9519 69.3199C16.8333 69.6303 16.6691 69.9036 16.4575 70.1399C16.2459 70.3772 15.9431 70.4948 15.5483 70.4948C15.4079 70.4948 15.275 70.4835 15.1507 70.4607V71.9658C15.3035 71.9877 15.5028 72 15.7514 72C16.0447 72.001 16.3512 71.9554 16.6729 71.8652ZM8.22372 68.8891V63.6381C8.22372 63.3344 8.29015 62.9994 8.42301 62.6321C8.55493 62.2658 8.78459 61.9479 9.11201 61.6774C9.43942 61.4069 9.81714 61.2712 10.2451 61.2712C10.7529 61.2712 11.1211 61.4012 11.3527 61.6603C11.5842 61.9194 11.7 62.319 11.7 62.8609V68.8891H13.3988V62.4129C13.3988 61.889 13.3048 61.4155 13.116 60.9922C12.9271 60.5699 12.6367 60.251 12.2457 60.0365C11.8538 59.823 11.3963 59.7158 10.8715 59.7158C10.2632 59.7158 9.74596 59.8316 9.3208 60.0622C8.89468 60.2937 8.53026 60.6088 8.22562 61.0093V56.8402H6.52685V68.8891H8.22372ZM5.05586 68.8891V67.4855C4.84138 67.5073 4.6269 67.5196 4.41336 67.5196C4.14859 67.5196 3.93316 67.4855 3.76613 67.4181C3.60005 67.3507 3.46908 67.2492 3.37323 67.1144C3.27738 66.9787 3.21284 66.8098 3.17868 66.6067C3.14451 66.4036 3.12838 66.1673 3.12838 65.8958V61.3215H4.96285V59.9862H3.12838V56.8412H1.43721V59.9862H0.286987V61.3215H1.43721V65.9129C1.43721 66.3694 1.47517 66.7851 1.55109 67.16C1.62702 67.5348 1.76558 67.8527 1.96582 68.1156C2.16512 68.3776 2.44034 68.5797 2.78958 68.724C3.13882 68.8682 3.58676 68.9403 4.13435 68.9403C4.46082 68.9403 4.7683 68.9233 5.05586 68.8891Z" fill="white"/>
</svg>
