                <svg width="125" height="20" viewBox="0 0 125 20" fill="none" xmlns="http://www.w3.org/2000/svg">
                  <g clip-path="url(#clip0_7621_868)">
                  <path d="M9.62359 13.3294H6.23012V8.99349H8.43526C8.85272 8.99349 9.20819 8.98316 9.62566 8.96042C9.90259 8.94987 10.1734 8.87603 10.4174 8.74455C10.6614 8.61307 10.872 8.42746 11.0331 8.20196C11.2116 7.96665 11.3255 7.68883 11.3637 7.39596C11.4009 7.13969 11.4051 6.92062 11.3803 6.66022C11.3369 6.19669 11.1214 5.76624 10.7763 5.4537C10.4313 5.14116 9.98167 4.96921 9.51612 4.97176H6.23012V19.0292H0.61499V0.524292H9.79099C10.1568 0.524292 10.4647 0.530492 10.8305 0.551159C13.2671 0.681359 15.2739 2.03503 16.3051 4.24429C16.832 5.33683 17.0336 6.55784 16.8859 7.76176C16.7612 9.03687 16.2321 10.2387 15.3758 11.1917C14.5195 12.1447 13.3809 12.7989 12.1263 13.0586C11.3058 13.2435 10.4668 13.3343 9.62566 13.3294" fill="white"/>
                  <path d="M30.4742 17.9938C30.3998 16.9046 30.3584 15.9829 30.3357 14.8896C30.3068 13.4533 30.2902 12.2443 30.2799 10.808C30.2799 10.0726 30.184 9.34032 29.9947 8.62971C29.8811 8.15905 29.6697 7.71759 29.3741 7.33409C29.0786 6.95059 28.7056 6.63365 28.2794 6.40391C27.773 6.11733 27.2249 5.91163 26.655 5.79425C24.8438 5.38726 22.9691 5.35 21.1432 5.68471C20.6058 5.77771 20.1574 5.90791 19.651 6.11871C19.089 6.34074 18.585 6.6881 18.1774 7.13434C17.7698 7.58057 17.4695 8.11393 17.2992 8.69378C17.158 9.13377 17.115 9.59936 17.1731 10.0578C17.1814 10.1446 17.2041 10.219 17.2434 10.2996L21.6929 10.4091C21.6792 10.1406 21.72 9.87203 21.8128 9.61965C21.8793 9.42479 21.9895 9.24772 22.1349 9.10194C22.2804 8.95617 22.4572 8.84554 22.6518 8.77851C23.2216 8.56 23.8501 8.54902 24.4271 8.74751C24.6183 8.80669 24.7919 8.91217 24.9325 9.05458C25.0731 9.197 25.1764 9.37193 25.2331 9.56385C25.3075 9.81185 25.2703 10.0598 25.1194 10.2727C24.9954 10.4547 24.8177 10.5934 24.611 10.6695C24.4788 10.7212 24.363 10.7563 24.2287 10.7935C23.6434 10.9531 23.0501 11.0821 22.4514 11.18C21.9512 11.2626 21.5296 11.3391 21.0336 11.4404C20.3952 11.5656 19.7651 11.7298 19.1468 11.9322C18.5761 12.1105 18.0532 12.4158 17.6174 12.825C17.0334 13.3438 16.6574 14.0568 16.5593 14.8318C16.4828 15.3712 16.5014 15.8403 16.6213 16.3714C16.76 17.0331 17.0784 17.6437 17.5414 18.1362C18.0044 18.6288 18.5942 18.9842 19.246 19.1635C20.6846 19.6039 22.2322 19.5257 23.619 18.9424C24.2966 18.6788 24.8936 18.2428 25.3509 17.6776L25.0368 15.4042C24.8273 15.7388 24.5199 16.0007 24.1564 16.1544C23.805 16.3094 23.4847 16.3921 23.1024 16.4314C22.782 16.4624 22.5051 16.4396 22.1951 16.3528C21.9544 16.2906 21.737 16.1599 21.5689 15.9767C21.4214 15.8228 21.3211 15.6299 21.2796 15.4208C21.2443 15.2614 21.2538 15.0954 21.3071 14.9411C21.3604 14.7868 21.4553 14.6503 21.5813 14.5466C21.7452 14.4037 21.9345 14.2929 22.1393 14.22C22.6287 14.039 23.1251 13.8777 23.6273 13.7364C24.2659 13.5566 24.7929 13.3624 25.3984 13.0834C25.4563 13.567 25.4542 13.9803 25.386 14.4618C25.3385 14.8152 25.229 15.1066 25.0368 15.4042L25.3509 17.6776C25.448 18 25.5369 18.2686 25.6485 18.5869C25.7105 18.7626 25.7932 18.899 25.9172 19.0374H30.8152C30.6124 18.726 30.4948 18.3669 30.4742 17.9958" fill="white"/>
                  <path d="M36.3332 7.20794C36.9467 6.66342 37.6385 6.21408 38.3854 5.87494C39.6044 5.28971 40.9995 5.18637 42.2914 5.58561C42.9866 5.7771 43.6218 6.14184 44.1375 6.6457C44.6533 7.14956 45.0328 7.77606 45.2405 8.46654C45.4543 9.1223 45.5604 9.80837 45.5547 10.4981V19.0293H40.3053V11.3578C40.3053 11.1015 40.2723 10.8825 40.1979 10.6386C40.1365 10.4268 40.0277 10.2317 39.8799 10.0681C39.732 9.90445 39.5489 9.77659 39.3443 9.69414C38.8991 9.50246 38.3991 9.48073 37.939 9.63309C37.4789 9.78545 37.0906 10.1013 36.8478 10.5208C36.6396 10.8653 36.5322 11.2612 36.5378 11.6637V19.0293H31.4538V5.81088H36.2216L36.3332 7.20794Z" fill="white"/>
                  <path d="M60.1515 17.9938C60.0771 16.9046 60.0358 15.9829 60.0131 14.8896C59.9841 13.4533 59.9676 12.2443 59.9572 10.808C59.9573 10.0726 59.8614 9.34032 59.6721 8.62971C59.5585 8.15905 59.347 7.71759 59.0515 7.33409C58.7559 6.95059 58.3829 6.63365 57.9567 6.40391C57.4503 6.11733 56.9022 5.91163 56.3323 5.79425C54.5211 5.38726 52.6464 5.35 50.8205 5.68471C50.2832 5.77771 49.8347 5.90791 49.3284 6.11871C48.7663 6.34074 48.2623 6.6881 47.8547 7.13434C47.4472 7.58057 47.1468 8.11393 46.9765 8.69378C46.8353 9.13377 46.7923 9.59936 46.8505 10.0578C46.8587 10.1446 46.8815 10.219 46.9207 10.2996L51.3703 10.4091C51.3566 10.1406 51.3973 9.87203 51.4901 9.61965C51.5567 9.42479 51.6669 9.24772 51.8123 9.10194C51.9577 8.95617 52.1345 8.84554 52.3292 8.77851C52.8989 8.56 53.5274 8.54902 54.1045 8.74751C54.2956 8.80669 54.4692 8.91217 54.6098 9.05458C54.7505 9.197 54.8537 9.37193 54.9105 9.56385C54.9849 9.81185 54.9477 10.0598 54.7968 10.2727C54.6727 10.4547 54.495 10.5934 54.2884 10.6695C54.1561 10.7212 54.0404 10.7563 53.9061 10.7935C53.3207 10.9531 52.7275 11.0821 52.1287 11.18C51.6286 11.2626 51.207 11.3391 50.711 11.4404C50.0726 11.5656 49.4424 11.7298 48.8241 11.9322C48.2534 12.1105 47.7306 12.4158 47.2948 12.825C46.7108 13.3438 46.3348 14.0568 46.2367 14.8318C46.1602 15.3712 46.1788 15.8403 46.2987 16.3714C46.4374 17.0331 46.7557 17.6437 47.2187 18.1362C47.6817 18.6288 48.2715 18.9842 48.9233 19.1635C50.362 19.6039 51.9095 19.5257 53.2964 18.9424C53.974 18.6788 54.5709 18.2428 55.0283 17.6776L54.7141 15.4042C54.5046 15.7388 54.1973 16.0007 53.8337 16.1544C53.4824 16.3094 53.1621 16.3921 52.7797 16.4314C52.4594 16.4624 52.1825 16.4396 51.8725 16.3528C51.6318 16.2906 51.4143 16.1599 51.2463 15.9767C51.0988 15.8228 50.9984 15.6299 50.9569 15.4208C50.9217 15.2614 50.9312 15.0954 50.9844 14.9411C51.0377 14.7868 51.1326 14.6503 51.2587 14.5466C51.4225 14.4037 51.6118 14.2929 51.8167 14.22C52.306 14.039 52.8024 13.8777 53.3047 13.7364C53.9433 13.5566 54.4703 13.3624 55.0758 13.0834C55.1337 13.567 55.1316 13.9803 55.0634 14.4618C55.0159 14.8152 54.9063 15.1066 54.7141 15.4042L55.0283 17.6776C55.1254 18 55.2143 18.2686 55.3259 18.5869C55.3879 18.7626 55.4705 18.899 55.5945 19.0374H60.4925C60.2897 18.726 60.1721 18.3669 60.1515 17.9958" fill="white"/>
                  <path d="M67.4882 14.1705C67.8664 14.2346 68.1826 14.3152 68.5463 14.4351C68.6921 14.4807 68.8229 14.5649 68.9248 14.6788C69.0266 14.7927 69.0958 14.932 69.125 15.0819C69.1625 15.2436 69.1577 15.4123 69.111 15.5716C69.0643 15.7309 68.9773 15.8754 68.8584 15.9913C68.6238 16.2346 68.3147 16.3924 67.9801 16.4397C67.513 16.5141 67.0997 16.4769 66.6574 16.3157C66.4513 16.2443 66.2601 16.1357 66.0932 15.9954C65.8737 15.8151 65.7133 15.5733 65.6323 15.301C65.5603 15.0732 65.5268 14.8351 65.5331 14.5963H60.693V14.8773C60.693 15.332 60.7633 15.7185 60.9224 16.1463C61.1663 16.7869 61.499 17.2829 62.0012 17.75C62.6203 18.34 63.3768 18.7662 64.2022 18.99C65.9018 19.4948 67.6937 19.6079 69.4433 19.3207C70.2646 19.2023 71.0594 18.9437 71.7931 18.556C72.1186 18.3885 72.4238 18.1839 72.7024 17.9463C73.337 17.4291 73.7989 16.7306 74.0263 15.9441C74.2538 15.1576 74.236 14.3205 73.9755 13.5443C73.7944 12.9572 73.4487 12.4343 72.9793 12.0377C72.3486 11.4798 71.5996 11.0721 70.7887 10.8453L70.2596 10.6944C69.2769 10.4176 68.2773 10.2049 67.2671 10.0579C66.9819 10.0165 66.7421 9.97108 66.4611 9.90495C66.338 9.87588 66.2182 9.83433 66.1035 9.78095C66.0327 9.7492 65.9688 9.70381 65.9155 9.64736C65.8622 9.59092 65.8205 9.52453 65.7929 9.45199C65.7653 9.37945 65.7522 9.30217 65.7544 9.22457C65.7567 9.14698 65.7742 9.07058 65.8059 8.99975L65.8287 8.95428C65.9028 8.81764 66.0038 8.6974 66.1257 8.6008C66.2475 8.50419 66.3876 8.43322 66.5375 8.39215C67.0914 8.23301 67.5998 8.24748 68.1433 8.42935C68.3937 8.51201 68.6099 8.67478 68.7585 8.89254C68.9072 9.1103 68.9801 9.37093 68.9659 9.63421H73.6324C73.6324 9.08971 73.5358 8.54952 73.3472 8.03875C73.1652 7.51391 72.8333 7.05401 72.3924 6.71608C72.0174 6.41447 71.5967 6.17449 71.1462 6.00515C70.7099 5.83333 70.2569 5.70728 69.7946 5.62901C68.6991 5.43304 67.584 5.37059 66.4735 5.44301C65.8039 5.48021 65.2397 5.56288 64.5845 5.71581C63.7041 5.92248 62.9932 6.26348 62.2823 6.82148C61.6978 7.26751 61.2608 7.87878 61.0278 8.57608C60.7454 9.41825 60.7763 10.334 61.1146 11.1553C61.2909 11.6191 61.5635 12.0403 61.9143 12.3912C62.2652 12.7421 62.6864 13.0146 63.1503 13.1909C63.6401 13.3852 64.0679 13.5133 64.5845 13.6187C65.6034 13.8295 66.4652 13.9928 67.4903 14.1685M83.3437 5.55875C82.8208 5.47608 82.3744 5.44095 81.8453 5.44095C81.3163 5.44095 80.8719 5.47608 80.347 5.55875C78.8906 5.76655 77.5394 6.43669 76.4927 7.47041C75.3365 8.54727 74.6281 10.02 74.5087 11.5955C74.4134 12.5512 74.5011 13.5163 74.767 14.4392C75.1803 15.9313 75.9615 17.0845 77.1912 18.0249C77.9556 18.6255 78.8492 19.0401 79.8014 19.2359C80.4728 19.3865 81.1593 19.46 81.8474 19.455C82.5707 19.455 83.1825 19.393 83.8913 19.2359C84.8435 19.04 85.7371 18.6254 86.5015 18.0249L83.6619 14.929C83.5547 15.1675 83.4015 15.3825 83.2111 15.5618C83.0207 15.7411 82.7968 15.881 82.5523 15.9738C82.3078 16.0665 82.0474 16.1101 81.786 16.1021C81.5246 16.0941 81.2674 16.0347 81.029 15.9272C80.5814 15.7335 80.2245 15.3766 80.0308 14.929C79.8452 14.5243 79.7192 14.0948 79.6567 13.6539C79.5162 12.7239 79.5327 11.9179 79.7125 10.9961C79.8055 10.5187 79.9667 10.1281 80.2333 9.71895C80.4091 9.45205 80.6484 9.23298 80.9298 9.0814C81.2111 8.92982 81.5257 8.85046 81.8453 8.85046C82.1649 8.85046 82.4795 8.92982 82.7609 9.0814C83.0422 9.23298 83.2815 9.45205 83.4573 9.71895C83.7165 10.1046 83.8937 10.5393 83.9781 10.9961C84.1579 11.9199 84.1765 12.7259 84.036 13.6539C83.9657 14.1189 83.8541 14.5012 83.6619 14.929L86.5015 18.0249C87.6932 17.1399 88.5475 15.8751 88.9237 14.4392C89.1944 13.4679 89.2729 12.5999 89.182 11.5955C89.0629 10.0199 88.3545 8.54703 87.198 7.47041C86.1515 6.43633 84.8002 5.76612 83.3437 5.55875Z" fill="white"/>
                  <path d="M94.7971 7.20794C95.4106 6.66342 96.1024 6.21408 96.8493 5.87494C98.0683 5.28971 99.4634 5.18637 100.755 5.58561C101.45 5.7771 102.086 6.14184 102.601 6.6457C103.117 7.14956 103.497 7.77606 103.704 8.46654C103.918 9.1223 104.024 9.80837 104.019 10.4981V19.0293H98.7693V11.3578C98.7693 11.1015 98.7362 10.8825 98.6618 10.6386C98.6004 10.4268 98.4917 10.2317 98.3438 10.0681C98.1959 9.90445 98.0128 9.77659 97.8083 9.69414C97.3631 9.50246 96.863 9.48073 96.4029 9.63309C95.9428 9.78545 95.5545 10.1013 95.3117 10.5208C95.1035 10.8653 94.9961 11.2612 95.0017 11.6637V19.0293H89.9177V5.81088H94.6855L94.7971 7.20794Z" fill="white"/>
                  <path d="M105.035 0.524292V4.01696H109.977V0.524292H105.035ZM105.035 5.81289V19.0313H109.977V5.81289H105.035ZM123.251 17.316C122.309 18.3346 121.064 19.0224 119.7 19.2772C118.742 19.4715 117.902 19.5128 116.929 19.4116C115.693 19.3011 114.515 18.8408 113.531 18.0848C112.716 17.4898 112.038 16.7274 111.541 15.8486C111.145 15.1759 110.879 14.4339 110.76 13.6621C110.574 12.5378 110.624 11.55 110.919 10.4505C111.595 7.94982 113.474 6.17869 116.009 5.65169C117.456 5.35203 118.742 5.38303 120.174 5.75296C121.149 5.99272 122.045 6.48363 122.772 7.17689C123.237 7.60122 123.622 8.10599 123.908 8.66696C124.264 9.32503 124.426 10.07 124.377 10.8163H119.858C119.815 10.5272 119.716 10.2494 119.566 9.9989C119.415 9.74844 119.217 9.53033 118.981 9.35723C118.682 9.12253 118.317 8.98655 117.936 8.96804C117.556 8.94954 117.18 9.04941 116.859 9.25389C116.411 9.52293 116.079 9.94967 115.929 10.4505C115.542 11.6263 115.522 12.892 115.871 14.0796C116.005 14.5826 116.28 15.0371 116.662 15.3898C116.875 15.5986 117.133 15.7542 117.417 15.844C117.701 15.9338 118.002 15.9552 118.295 15.9065C118.666 15.8588 119.005 15.6764 119.25 15.394C119.512 15.1105 119.684 14.7561 119.746 14.3751C119.796 14.0961 119.822 13.8584 119.839 13.5753H124.603C124.659 14.2593 124.568 14.9474 124.334 15.5929C124.101 16.2383 123.732 16.826 123.251 17.316Z" fill="white"/>
                  </g>
                  <defs>
                  <clipPath id="clip0_7621_868">
                  <rect width="124" height="18.9513" fill="white" transform="translate(0.61499 0.524292)"/>
                  </clipPath>
                  </defs>
                </svg>