
<svg width="125" height="50" viewBox="0 0 125 50" fill="none" xmlns="http://www.w3.org/2000/svg">
<g clip-path="url(#clip0_7621_997)">
<path fill-rule="evenodd" clip-rule="evenodd" d="M124.597 49.7999H0.61499V0.199951H124.615V49.7999H124.597Z" fill="#0A0A0A"/>
<path fill-rule="evenodd" clip-rule="evenodd" d="M3.09497 24.9999C3.09497 37.1922 28.0392 47.3199 62.6239 47.3199C97.2085 47.3199 122.135 37.1922 122.135 24.9999C122.135 12.8076 97.1908 2.67993 62.6239 2.67993C28.0569 2.67993 3.09497 12.8076 3.09497 24.9999Z" fill="white"/>
<path d="M58.2105 32.4458C58.6015 33.0009 59.028 33.5213 59.5256 33.9898H46.1074C46.1074 33.4693 45.592 32.411 45.0232 31.5784C44.4546 30.7456 41.3799 26.1831 41.3799 26.1831V32.4458C41.3799 32.9662 41.3799 33.4693 41.6465 33.9898H30.4676C30.7342 33.4693 30.7342 32.9662 30.7342 32.4458V17.5609C30.7342 17.0405 30.7342 16.5374 30.4676 16.017H41.6465C41.3799 16.5374 41.3799 17.0405 41.3799 17.5609V24.0666C41.3799 24.0666 44.9522 19.5214 45.7697 18.463C46.3917 17.6651 47.156 16.5373 47.156 16.017H58.8148C58.015 16.5374 57.1264 17.4742 56.3976 18.3416C55.7578 19.105 52.1323 23.4246 52.1323 23.4246C52.1323 23.4246 57.4996 31.4223 58.2105 32.4458ZM61.7294 17.5609V32.4458C61.7294 32.9662 61.7294 33.4693 61.4628 33.9898H83.0387V28.9935C82.5055 29.2536 81.99 29.2536 81.4569 29.2536H72.3751V26.8943H81.1014V23.1123H72.3751V20.7357H81.4569C81.9901 20.7357 82.5055 20.7357 83.0387 20.9786V15.9996H61.4628C61.7294 16.5374 61.7294 17.0405 61.7294 17.5609ZM112.932 32.4458C113.11 33.0183 113.412 33.5387 113.803 33.9898H102.108C102.162 33.4693 101.966 32.9662 101.753 32.4458C101.753 32.4458 101.575 32.0294 101.327 31.4223L101.22 31.162H94.4841L94.3775 31.4395C94.3775 31.4395 94.1819 31.9427 94.0042 32.4631C93.8265 32.9835 93.631 33.4866 93.7022 34.007H84.4782C84.855 33.552 85.1388 33.0275 85.3136 32.4631L90.8407 17.5783C91.0363 17.0579 91.2317 16.5548 91.1607 16.0344H106.747C106.605 16.5548 106.889 17.0579 107.085 17.5783C107.547 18.7059 112.541 31.4395 112.932 32.4458ZM99.7448 27.3627L98.1097 23.1991C97.9675 22.8175 97.8431 22.4185 97.7542 22.0195C97.6831 22.4214 97.576 22.8162 97.4343 23.1991C97.381 23.3727 96.6878 25.1942 95.888 27.3627H99.7448ZM25.1713 16.017H13.015C13.2816 16.5374 13.2816 17.0405 13.2816 17.5609V32.4458C13.2816 32.9662 13.2816 33.4693 13.015 33.9898H25.1713C24.9047 33.4693 24.9047 32.9662 24.9047 32.4458V17.5609C24.9047 17.0405 24.9047 16.5374 25.1713 16.017ZM109.2 17.4395C109.146 16.1731 110.159 15.1149 111.457 15.0802H111.617C112.932 15.0628 114.016 16.069 114.034 17.3527V17.4395C114.069 18.7407 113.021 19.8336 111.67 19.8683C110.337 19.903 109.217 18.8794 109.182 17.5609C109.2 17.5262 109.2 17.4742 109.2 17.4395ZM109.68 17.4395C109.68 18.4804 110.55 19.3305 111.617 19.3305C112.683 19.3305 113.554 18.4804 113.554 17.4395C113.554 16.3987 112.683 15.5485 111.617 15.5485C110.586 15.5138 109.715 16.2945 109.68 17.3006V17.4395ZM111.137 18.8447H110.71V15.9996H111.794C112.31 16.017 112.701 16.4159 112.701 16.9191C112.701 17.266 112.505 17.5783 112.185 17.7518L112.808 18.8447H112.328L111.759 17.8386H111.137V18.8447ZM111.137 17.4395H111.723C112.008 17.4569 112.257 17.2486 112.257 16.9711C112.257 16.6935 112.061 16.4506 111.777 16.4506H111.137V17.4395Z" fill="#0A0A0A"/>
</g>
<defs>
<clipPath id="clip0_7621_997">
<rect width="124" height="49.6" fill="white" transform="translate(0.61499 0.199951)"/>
</clipPath>
</defs>
</svg>
